<svg xmlns="http://www.w3.org/2000/svg" width="13.184" height="16.496" viewBox="0 0 13.184 16.496">
  <path id="Path_36795" data-name="Path 36795" d="M122.039,8.589a4.133,4.133,0,0,0-3.873,4.337v1.242h-1.108a1.177,1.177,0,0,0-1.108,1.24v7.438a1.177,1.177,0,0,0,1.108,1.24h9.961a1.177,1.177,0,0,0,1.108-1.24V15.408a1.179,1.179,0,0,0-1.108-1.24h-1.108v-1.24a4.134,4.134,0,0,0-3.675-4.293.51.51,0,0,0-.2-.046m0,1.24a2.939,2.939,0,0,1,2.768,3.1v1.24h-5.535v-1.24a2.939,2.939,0,0,1,2.768-3.1" transform="translate(-115.447 -8.089)" stroke="#707070" stroke-linejoin="bevel" stroke-width="1"/>
</svg>
